<?xml version="1.0" encoding="UTF-8"?>
<svg id="Capa_2" data-name="Capa 2" xmlns="http://www.w3.org/2000/svg" viewBox="0 0 16 15.54">
  <defs>
    <style>
      .cls-1 {
        fill: #ff9000;
      }
    </style>
  </defs>
  <g id="Capa_1-2" data-name="Capa 1">
    <g>
      <path class="cls-1" d="M1.72.99v12.86h13.29c.02-.07-.03-.08-.06-.12-.11-.14-.61-.55-.64-.66-.08-.27.14-.43.4-.36.2.06.99,1.07,1.25,1.23.06.1.06.26,0,.36-.26.16-1.05,1.17-1.25,1.23-.09.03-.24.02-.31-.03-.43-.3.54-.82.61-1.1H1.31s-.18-.19-.18-.22V.99c-.25.14-.59.73-.88.71-.15,0-.28-.18-.25-.33C.04,1.16,1.09.3,1.27.04c.1-.07.28-.05.37.02.15.31,1.16,1.05,1.21,1.3.02.09,0,.2-.07.26-.35.3-.79-.5-1.06-.65h0Z"/>
      <path class="cls-1" d="M4.03,7.3c0-.62-.01-1.12-.05-1.61h.95l.05.96h.04c.33-.57.88-1.1,1.87-1.1.81,0,1.42.49,1.68,1.19h.02c.18-.33.42-.59.66-.78.36-.27.75-.42,1.31-.42.79,0,1.95.52,1.95,2.59v3.51h-1.06v-3.37c0-1.15-.42-1.83-1.29-1.83-.61,0-1.09.46-1.28.99-.05.15-.09.34-.09.54v3.68h-1.06v-3.57c0-.95-.42-1.64-1.24-1.64-.68,0-1.17.54-1.34,1.08-.06.16-.09.34-.09.53v3.6h-1.06v-4.35h0Z"/>
      <path class="cls-1" d="M12.73,4.7v-.23l.33-.29c.78-.68,1.14-1.04,1.14-1.46,0-.28-.15-.54-.61-.54-.28,0-.51.13-.65.24l-.13-.27c.21-.16.51-.28.87-.28.66,0,.94.41.94.81,0,.51-.41.93-1.06,1.49l-.25.21h0s1.38,0,1.38,0v.31h-1.96Z"/>
    </g>
  </g>
</svg>