<?xml version="1.0" encoding="UTF-8"?>
<svg id="Capa_2" data-name="Capa 2" xmlns="http://www.w3.org/2000/svg" viewBox="0 0 12.11 13.72">
  <defs>
    <style>
      .cls-1 {
        fill: #ff9000;
      }
    </style>
  </defs>
  <g id="Capa_1-2" data-name="Capa 1">
    <path class="cls-1" d="M11.46,0c-.1,0-.2.03-.29.07L.36,4.01s0,0,0,0c-.01,0-.02.01-.04.02,0,0-.01,0-.02.01,0,0-.02.01-.03.02,0,0-.02.01-.03.02,0,0-.01.01-.02.02,0,0-.02.02-.03.02,0,0,0,.01-.02.02,0,0-.02.02-.03.03,0,0,0,.01-.01.02,0,0-.01.02-.02.03,0,0,0,.02-.02.03,0,0,0,.02-.02.03,0,0,0,.02-.02.03,0,0,0,.01,0,.02,0,.01,0,.02-.01.04,0,0,0,.01,0,.02,0,.01,0,.02,0,.04,0,0,0,.02,0,.03,0,0,0,.02,0,.03,0,0,0,.02,0,.03v.06h0v8.48c0,.35.29.64.64.64h10.65c.05.01.11.03.18.03.35,0,.64-.29.64-.64V.64c0-.35-.29-.64-.64-.64h0ZM8.46,8.37H3.7s-.04,0-.05,0v-.4c0-.56.46-1.23,1.03-1.23h2.76c.57,0,1.03.67,1.03,1.23v.39h0ZM8.79,9.88c0,.32-.26.57-.57.57s-.57-.26-.57-.57.26-.57.57-.57.57.26.57.57ZM3.88,9.31c.32,0,.57.26.57.57s-.26.57-.57.57-.57-.26-.57-.57.26-.57.57-.57ZM3.6,11.92v-.11s.06,0,.1,0h4.87s.07,0,.1,0v.11c0,.22.13.41.32.49H3.28c.19-.09.32-.27.32-.49ZM10.82,12.42h-1.39c.19-.09.32-.27.32-.49v-2.38c0-.25-.08-.48-.21-.67h.15c.14,0,.26-.12.26-.26s-.11-.26-.26-.26h-.65v-.39c0-.86-.69-1.82-1.62-1.82h-2.76c-.93,0-1.62.96-1.62,1.82v.39h-.65c-.14,0-.26.11-.26.26s.11.26.26.26h.32c-.13.19-.21.42-.21.67v2.38c0,.22.13.41.32.49h-1.55v-7.43L10.82,1.59v10.82h0Z"/>
  </g>
</svg>