<?xml version="1.0" encoding="UTF-8"?>
<svg id="Capa_2" data-name="Capa 2" xmlns="http://www.w3.org/2000/svg" viewBox="0 0 16 8.8">
  <defs>
    <style>
      .cls-1 {
        fill: #ff9000;
      }
    </style>
  </defs>
  <g id="Capa_1-2" data-name="Capa 1">
    <path class="cls-1" d="M15.69,4.09h-.8c-.17,0-.31.14-.31.31v.66h-.52v-2.71c0-.17-.14-.31-.31-.31H5.47c-.17,0-.31.14-.31.31v2.71h-1.36c.66-.17,1.15-.77,1.15-1.48,0-.85-.69-1.54-1.54-1.54s-1.54.69-1.54,1.54c0,.71.49,1.31,1.15,1.48h-1.62V.31c0-.17-.14-.31-.31-.31H.31c-.17,0-.31.14-.31.31v8.19c0,.17.14.31.31.31h.8c.17,0,.31-.14.31-.31v-1.23h13.18v1.23c0,.17.14.31.31.31h.8c.17,0,.31-.14.31-.31v-4.09c0-.17-.14-.31-.31-.31h0Z"/>
  </g>
</svg>