<?xml version="1.0" encoding="UTF-8"?>
<svg id="Capa_2" data-name="Capa 2" xmlns="http://www.w3.org/2000/svg" viewBox="0 0 14.78 21.57">
  <defs>
    <style>
      .cls-1 {
        fill: #ff9000;
      }
    </style>
  </defs>
  <g id="Capa_1-2" data-name="Capa 1">
    <g>
      <path class="cls-1" d="M7.39,0C3.31,0,0,3.23,0,7.2c0,6.2,5.03,10.89,6.79,12.34.34.28.85.28,1.19,0,1.76-1.45,6.8-6.14,6.8-12.34,0-3.97-3.31-7.2-7.39-7.2ZM7.39,11.81c-2.62,0-4.74-2.06-4.74-4.61S4.77,2.59,7.39,2.59s4.73,2.06,4.73,4.61-2.12,4.61-4.73,4.61Z"/>
      <path class="cls-1" d="M2.61,19.93c0,.91,2.14,1.64,4.78,1.64s4.78-.74,4.78-1.64c0-.6-.94-1.13-2.35-1.42-.6.6-1.14,1.06-1.52,1.38-.25.21-.57.32-.9.32s-.65-.11-.9-.32c-.38-.32-.92-.78-1.52-1.38-1.41.29-2.35.81-2.35,1.42h0Z"/>
    </g>
  </g>
</svg>