<svg width="15" height="14" viewBox="0 0 15 14" fill="none" xmlns="http://www.w3.org/2000/svg">
<path d="M1.63247 0.967095V12.1998H13.2434C13.2585 12.1397 13.2188 12.1311 13.1924 12.0964C13.0965 11.9711 12.6619 11.6159 12.6334 11.5224C12.5636 11.2906 12.7564 11.1435 12.9797 11.2105C13.1534 11.2627 13.8428 12.1421 14.0675 12.2833C14.1202 12.3712 14.1206 12.5076 14.0675 12.5962C13.8432 12.7378 13.1534 13.6168 12.9797 13.669C12.905 13.6914 12.7739 13.6896 12.7101 13.6443C12.3372 13.3801 13.1838 12.9236 13.2434 12.6801H1.27283C1.25742 12.6801 1.11871 12.5152 1.11871 12.4911V0.967095C0.902584 1.09316 0.600151 1.60499 0.347724 1.5885C0.217229 1.57992 0.107284 1.42911 0.130575 1.30133C0.165168 1.11206 1.08411 0.366985 1.23653 0.140956C1.32763 0.0815294 1.47765 0.0935522 1.56191 0.161567C1.6972 0.428817 2.5747 1.0832 2.61957 1.30133C2.63635 1.38274 2.62128 1.47583 2.55586 1.53251C2.2524 1.79461 1.86503 1.09522 1.63212 0.966752L1.63247 0.967095Z" fill="#FF9000"/>
<path d="M3.64877 6.48385C3.64877 5.94592 3.63815 5.50485 3.60596 5.07444H4.43208L4.4749 5.91363H4.50709C4.79685 5.41863 5.27944 4.95627 6.13742 4.95627C6.84538 4.95627 7.38175 5.38669 7.60712 5.99985H7.6287C7.78967 5.70924 7.99346 5.48355 8.20787 5.32211C8.51887 5.08543 8.86206 4.95627 9.35561 4.95627C10.042 4.95627 11.0613 5.40798 11.0613 7.21553V10.2817H10.1389V7.33404C10.1389 6.3334 9.77416 5.73122 9.01276 5.73122C8.4764 5.73122 8.0582 6.12935 7.89722 6.59206C7.85441 6.72122 7.82221 6.89331 7.82221 7.06541V10.282H6.89984V7.16228C6.89984 6.33374 6.53507 5.73157 5.81649 5.73157C5.22636 5.73157 4.79754 6.20492 4.64718 6.67828C4.5934 6.81809 4.57217 6.97954 4.57217 7.14098V10.2824H3.6498V6.48488L3.64877 6.48385Z" fill="#FF9000"/>
<path d="M11.2466 4.2081V4.00611L11.5312 3.75535C12.2162 3.16417 12.5258 2.84986 12.53 2.483C12.53 2.23601 12.3977 2.00792 11.9977 2.00792C11.7542 2.00792 11.5521 2.12025 11.4281 2.21368L11.3127 1.98182C11.4983 1.8396 11.7624 1.73483 12.072 1.73483C12.6498 1.73483 12.8934 2.09414 12.8934 2.44212C12.8934 2.89108 12.5344 3.25417 11.9689 3.74814L11.7542 3.92779V3.93535H12.9595V4.20844H11.2466V4.2081Z" fill="#FF9000"/>
</svg>
