<svg width="13" height="14" viewBox="0 0 13 14" fill="none" xmlns="http://www.w3.org/2000/svg">
<path d="M11.5474 0.0896606C11.4445 0.0896606 11.3462 0.116535 11.2612 0.161325L0.557321 4.05805C0.557321 4.05805 0.55285 4.05805 0.548379 4.06253C0.534965 4.06701 0.526023 4.07597 0.51261 4.08045C0.503667 4.08493 0.499196 4.0894 0.490254 4.09388C0.481312 4.09836 0.472369 4.10732 0.463427 4.1118C0.454485 4.11628 0.445543 4.12524 0.4366 4.12972C0.427658 4.1342 0.423187 4.14315 0.418716 4.14763C0.409774 4.15659 0.400831 4.16555 0.391889 4.17003C0.387418 4.17451 0.382947 4.18346 0.374005 4.18794C0.365062 4.1969 0.35612 4.20586 0.347178 4.21482C0.342707 4.2193 0.338236 4.22825 0.333764 4.23273C0.324822 4.24169 0.320351 4.25065 0.311409 4.25961C0.306938 4.26857 0.302466 4.27752 0.293524 4.28648C0.289053 4.29544 0.284582 4.3044 0.27564 4.31335C0.271169 4.32231 0.266697 4.33575 0.257755 4.34471C0.257755 4.35367 0.248813 4.35814 0.248813 4.3671C0.244342 4.38054 0.239871 4.3895 0.235399 4.40294C0.235399 4.41189 0.230928 4.41637 0.226457 4.42533C0.226457 4.43877 0.217515 4.44772 0.217515 4.46116C0.217515 4.47012 0.217515 4.47908 0.213044 4.48804C0.213044 4.49699 0.213044 4.51043 0.208573 4.51939C0.208573 4.52835 0.208573 4.54178 0.204102 4.55074C0.204102 4.5597 0.204102 4.56866 0.204102 4.57762C0.204102 4.59105 0.204102 4.60449 0.204102 4.61345V4.62241V13.0071C0.204102 13.3565 0.490254 13.6431 0.839002 13.6431H11.3775C11.4311 13.6565 11.4892 13.67 11.5518 13.67C11.9006 13.67 12.1867 13.3833 12.1867 13.034V0.725678C12.1867 0.376316 11.9006 0.0896606 11.5518 0.0896606H11.5474ZM8.57406 8.37133H3.86149C3.86149 8.37133 3.82572 8.37133 3.80783 8.3758V7.97717C3.80783 7.42626 4.25942 6.75889 4.82725 6.75889H7.55464C8.11801 6.75889 8.57406 7.42626 8.57406 7.97717V8.36685V8.37133ZM8.90045 9.87179C8.90045 10.1853 8.6456 10.4406 8.33262 10.4406C8.01964 10.4406 7.76479 10.1853 7.76479 9.87179C7.76479 9.55826 8.01964 9.30296 8.33262 9.30296C8.6456 9.30296 8.90045 9.55826 8.90045 9.87179ZM4.04927 9.30296C4.36225 9.30296 4.61711 9.55826 4.61711 9.87179C4.61711 10.1853 4.36225 10.4406 4.04927 10.4406C3.7363 10.4406 3.48144 10.1853 3.48144 9.87179C3.48144 9.55826 3.7363 9.30296 4.04927 9.30296ZM3.76312 11.8873V11.7798C3.79442 11.7798 3.82572 11.7843 3.86149 11.7843H8.68137C8.71267 11.7843 8.74844 11.7843 8.77973 11.7798V11.8873C8.77973 12.1068 8.9094 12.2949 9.09718 12.3755H3.44567C3.63346 12.2904 3.76312 12.1068 3.76312 11.8873ZM10.9125 12.38H9.53535C9.72314 12.2949 9.85281 12.1113 9.85281 11.8918V10.7318C9.85281 10.7318 9.85281 10.7049 9.85281 10.6914C9.85281 10.6646 9.85281 10.6422 9.85281 10.6153V9.54034C9.85281 9.294 9.7768 9.06557 9.64713 8.87745H9.79915C9.93776 8.87745 10.054 8.761 10.054 8.62215C10.054 8.4833 9.94223 8.36685 9.79915 8.36685H9.15531V7.97717C9.15531 7.12617 8.47122 6.17214 7.55464 6.17214H4.82725C3.91067 6.17214 3.22659 7.12617 3.22659 7.97717V8.36685H2.58274C2.44414 8.36685 2.32789 8.47882 2.32789 8.62215C2.32789 8.76548 2.43967 8.87745 2.58274 8.87745H2.90019C2.77053 9.06557 2.69452 9.294 2.69452 9.54034V10.6153C2.69452 10.6422 2.69452 10.6646 2.69452 10.6914C2.69452 10.7049 2.69452 10.7183 2.69452 10.7318V11.8918C2.69452 12.1113 2.82418 12.2994 3.01197 12.38H1.4739V5.02552L10.9125 1.66179V12.3755V12.38Z" fill="#FF9000"/>
</svg>
