<svg width="41" height="22" viewBox="0 0 41 22" fill="none" xmlns="http://www.w3.org/2000/svg">
<path d="M39.8443 10.2317H37.8559C37.4289 10.2317 37.0873 10.5732 37.0873 11V12.6585H35.7821V5.87805C35.7821 5.45122 35.4405 5.10976 35.0135 5.10976H14.2877C13.8607 5.10976 13.5192 5.45122 13.5192 5.87805V12.6585H10.1157C11.7625 12.2317 12.9824 10.7317 12.9824 8.95122C12.9824 6.82927 11.2624 5.10976 9.13979 5.10976C7.01719 5.10976 5.29716 6.82927 5.29716 8.95122C5.29716 10.7317 6.51704 12.2317 8.16388 12.6585H4.12607V0.768293C4.12607 0.341463 3.7845 0 3.35754 0H1.39353C0.966568 0 0.625 0.341463 0.625 0.768293V21.2317C0.625 21.6585 0.966568 22 1.39353 22H3.38194C3.8089 22 4.15047 21.6585 4.15047 21.2317V18.1585H37.0995V21.2317C37.0995 21.6585 37.4411 22 37.8681 22H39.8565C40.2834 22 40.625 21.6585 40.625 21.2317V11C40.625 10.5732 40.2834 10.2317 39.8565 10.2317H39.8443Z" fill="#FF9000"/>
</svg>
