<svg width="16" height="22" viewBox="0 0 16 22" fill="none" xmlns="http://www.w3.org/2000/svg">
<path d="M0.659167 7.23642C0.659167 13.4324 5.69278 18.1235 7.45097 19.5732C7.79585 19.8575 8.30106 19.8575 8.64594 19.5732C10.4041 18.1235 15.4377 13.4324 15.4377 7.23642C15.4377 3.26108 12.1294 0.0383911 8.04846 0.0383911C3.96748 0.0383911 0.659167 3.26108 0.659167 7.23642Z" fill="#FF9000"/>
<path d="M8.04842 11.8501C5.43267 11.8501 3.31218 9.78451 3.31218 7.23646C3.31218 4.68841 5.43267 2.6228 8.04842 2.6228C10.6642 2.6228 12.7847 4.68841 12.7847 7.23646C12.7847 9.78451 10.6642 11.8501 8.04842 11.8501Z" fill="white"/>
<path d="M3.27106 19.9647C3.27106 20.8718 5.40976 21.6071 8.04819 21.6071C10.6866 21.6071 12.8253 20.8718 12.8253 19.9647C12.8253 19.3618 11.8804 18.8347 10.4719 18.5491C9.86896 19.1467 9.3352 19.6117 8.95287 19.9271C8.70026 20.1354 8.37891 20.25 8.04796 20.25C7.71702 20.25 7.39566 20.1354 7.14306 19.9271C6.7605 19.6117 6.22696 19.1469 5.624 18.5491C4.21548 18.8347 3.27061 19.3618 3.27061 19.9647H3.27106Z" fill="#FF9000"/>
</svg>
